<svg width="21" height="16" viewBox="0 0 21 16" fill="none" xmlns="http://www.w3.org/2000/svg">
<path d="M12.7314 10C12.8382 10 12.9444 10.0215 13.0429 10.0625C13.1414 10.1035 13.2308 10.1637 13.3056 10.2393C13.4575 10.3903 13.5429 10.5953 13.5429 10.8086C13.5428 11.0219 13.4575 11.2269 13.3056 11.3779C12.6308 12.0388 11.72 12.4092 10.7714 12.4092C9.82305 12.4091 8.9129 12.0386 8.23824 11.3779C8.10557 11.2461 8.02222 11.0721 8.00387 10.8867C7.98559 10.7015 8.03245 10.5152 8.13668 10.3604C8.24094 10.2055 8.39652 10.0914 8.57613 10.0371C8.75581 9.98281 8.94928 9.99162 9.123 10.0625C9.22127 10.1034 9.31014 10.1638 9.38471 10.2393C9.75929 10.5907 10.2557 10.7871 10.7714 10.7871C11.2871 10.7871 11.7836 10.5907 12.1581 10.2393C12.2329 10.1637 12.3224 10.1035 12.4208 10.0625C12.5192 10.0216 12.6247 10.0001 12.7314 10Z" fill="white"/>
<path d="M13.1963 0C14.3768 0.000726947 15.5258 0.378983 16.4717 1.0791C17.4176 1.77926 18.1102 2.76391 18.4463 3.88574H18.6563V0.710938C18.6563 0.522427 18.7317 0.341305 18.8662 0.208008C19.0006 0.074803 19.183 4.61595e-05 19.373 0C19.5631 0 19.7454 0.0748718 19.8799 0.208008C20.0143 0.341305 20.0898 0.522427 20.0898 0.710938V4.05664C20.2736 4.12868 20.4402 4.23857 20.5781 4.37891C20.831 4.66773 20.9786 5.03151 20.998 5.41016V10.4268C20.9983 10.6483 20.9545 10.8676 20.8691 11.0723C20.7837 11.2771 20.6581 11.4634 20.5 11.6201C20.342 11.7768 20.1548 11.9016 19.9482 11.9863L19.79 12.042C19.6302 12.0899 19.4635 12.1145 19.2959 12.1143H18.3408C18.0047 13.236 17.3121 14.2208 16.3662 14.9209L16.1865 15.0479C15.2766 15.6663 14.1976 15.9993 13.0908 16H7.9082L7.6875 15.9951C6.65842 15.9534 5.66193 15.6252 4.8125 15.0479L4.63281 14.9209C3.6869 14.2208 2.99432 13.2361 2.6582 12.1143H1.70215C1.5345 12.1145 1.3679 12.0899 1.20801 12.042L1.05078 11.9863C0.895804 11.9228 0.751265 11.8365 0.622072 11.7314L0.498048 11.6201C0.339988 11.4634 0.214334 11.2771 0.128907 11.0723C0.0435915 10.8676 -0.000261826 10.6482 1.17599e-06 10.4268V5.57324C0.00115958 5.12588 0.179775 4.69702 0.497071 4.37891C0.632001 4.24635 0.791008 4.1401 0.965822 4.06641V0.710938C0.965822 0.522442 1.04134 0.341302 1.17578 0.208008C1.31015 0.0748053 1.4926 0.000106379 1.68262 0C1.87278 0 2.05597 0.0747113 2.19043 0.208008C2.32482 0.341294 2.40039 0.522482 2.40039 0.710938V3.88574H2.67676C3.01286 2.76389 3.70542 1.77927 4.65137 1.0791C5.59727 0.378963 6.74628 0.000768956 7.92676 0H13.1963ZM7.56641 1.01465C6.72787 1.08226 5.92376 1.38293 5.24707 1.88379C4.47382 2.45613 3.90853 3.259 3.63477 4.17285L3.59473 4.30762H3.60742L3.49512 5.36621L3.49609 5.37891V10.6211L3.49512 10.6299L3.60742 11.6924H3.57617L3.61621 11.8271C3.88995 12.7408 4.45447 13.5439 5.22754 14.1162C6.00081 14.6886 6.94106 14.9993 7.9082 15H13.0908C14.058 14.9994 14.9982 14.6886 15.7715 14.1162C16.5446 13.5439 17.109 12.7409 17.3828 11.8271L17.5098 11.4014L17.5898 10.6494L17.5889 10.6396V5.34082L17.5898 5.3291L17.4785 4.26953H17.5176L17.4883 4.17285C17.2146 3.2592 16.65 2.4561 15.877 1.88379C15.2002 1.38287 14.3953 1.08223 13.5566 1.01465L13.1953 1H7.92774L7.56641 1.01465ZM18.5889 10.7109H19.3438C19.4151 10.7115 19.4842 10.6842 19.5352 10.6348C19.5825 10.5826 19.61 10.5154 19.6123 10.4453V5.53418C19.6112 5.46502 19.5839 5.39811 19.5352 5.34668C19.5118 5.32249 19.4833 5.30316 19.4522 5.29004C19.4212 5.27703 19.3881 5.2695 19.3545 5.26953H18.5889V10.7109ZM1.7207 5.30762C1.65263 5.31078 1.58832 5.34009 1.54199 5.38965C1.49558 5.43937 1.47048 5.50554 1.47266 5.57324V10.4268C1.47471 10.4968 1.50181 10.5639 1.54883 10.6162C1.59982 10.6657 1.6689 10.693 1.74024 10.6924H2.49609V5.30762H1.7207Z" fill="white"/>
<path d="M13.7695 5C13.9844 5.00003 14.1905 5.08413 14.3428 5.23438L15.2988 6.18164C15.4623 6.32352 15.5626 6.52434 15.5771 6.73926C15.5916 6.95435 15.5192 7.16687 15.376 7.3291H15.3467C15.1943 7.47962 14.9876 7.56445 14.7725 7.56445C14.5575 7.56433 14.3515 7.47949 14.1992 7.3291L13.7891 6.92285L13.3867 7.3291C13.2327 7.47637 13.0265 7.55781 12.8125 7.55664C12.7065 7.55824 12.6013 7.53908 12.5029 7.5C12.4045 7.46089 12.3148 7.40286 12.2393 7.3291C12.0864 7.17684 12.0001 6.97069 12 6.75586C12 6.54091 12.0863 6.33398 12.2393 6.18164L13.1963 5.23438C13.3486 5.08418 13.5547 5 13.7695 5Z" fill="white"/>
<path d="M7.76953 5C7.98441 5.00003 8.19045 5.08413 8.34277 5.23438L9.29883 6.18164C9.46233 6.32352 9.56259 6.52434 9.57715 6.73926C9.59159 6.95435 9.51918 7.16687 9.37598 7.3291H9.34668C9.1943 7.47962 8.98758 7.56445 8.77246 7.56445C8.55752 7.56433 8.35149 7.47949 8.19922 7.3291L7.78906 6.92285L7.38672 7.3291C7.23274 7.47637 7.02646 7.55781 6.8125 7.55664C6.7065 7.55824 6.60134 7.53908 6.50293 7.5C6.40448 7.46089 6.31484 7.40286 6.23926 7.3291C6.08636 7.17684 6.00008 6.97069 6 6.75586C6 6.54091 6.08629 6.33398 6.23926 6.18164L7.19629 5.23438C7.34863 5.08418 7.55467 5 7.76953 5Z" fill="white"/>
</svg>
